#!OML:ASF H:\ManfredETheater\Project 1\Capture day 1\Session 1\subject.ASF
:FULLY-SPECIFIED
:DEGREES
92
root -6.60692 16.1182 -5.29207 -181.66 35.6321 -201.073
lowerback 14.5546 -2.07502 -11.9298
upperback -0.646672 -4.82017 -2.81373
thorax -8.16808 -1.76639 4.64222
lowerneck -19.2193 -1.96924 -4.26347
upperneck 10.0985 -2.0113 3.26549
head 6.26136 -0.859504 1.52251
rclavicle 1.35174e-014 5.88403e-014
rhumerus -69.8585 2.8915 -92.7929
rradius 105.347
rwrist -7.26916
rhand -29.7587 15.8188
rfingers 7.12502
rthumb -3.08444 -14.1387
lclavicle 1.35174e-014 5.88403e-014
lhumerus -42.2161 -10.2174 90.0435
lradius 125.694
lwrist 19.3333
lhand -18.5078 -9.27469
lfingers 7.12502
lthumb 7.78021 20.5622
rfemur -62.7634 -13.7593 31.3853
rtibia 60.8501
rfoot -15.8823 -5.69152
rtoes -42.306
lfemur 1.20885 -3.58302 -21.2601
ltibia 38.0864
lfoot -15.09 0.546306
ltoes -40.0131
93
root -6.35682 16.188 -5.75222 -182.23 36.3524 -201.636
lowerback 14.2793 -2.19378 -11.9825
upperback -0.640663 -4.9475 -2.93321
thorax -7.99078 -1.8377 4.54742
lowerneck -19.2709 -1.73915 -4.10612
upperneck 10.2866 -1.7179 3.07766
head 6.31568 -0.728345 1.46861
rclavicle 1.21259e-013 1.11319e-014
rhumerus -70.5704 2.14094 -92.3335
rradius 105.282
rwrist -6.85918
rhand -29.7067 15.7784
rfingers 7.12502
rthumb -3.03419 -14.1797
lclavicle 1.21259e-013 1.11319e-014
lhumerus -42.3759 -10.0767 89.6164
lradius 126.058
lwrist 18.7266
lhand -18.8593 -9.42753
lfingers 7.12502
lthumb 7.441 20.4216
rfemur -62.112 -13.417 31.2188
rtibia 56.336
rfoot -14.4688 -4.0477
rtoes -43.1568
lfemur 3.10396 -3.47423 -22.0602
ltibia 36.9967
lfoot -10.2719 -0.917344
ltoes -38.6395
94
root -6.09962 16.2606 -6.21264 -182.829 36.9385 -202.221
lowerback 14.0048 -2.33873 -12.0055
upperback -0.626321 -5.10315 -3.07307
thorax -7.80477 -1.92446 4.41831
lowerneck -19.369 -1.52241 -3.95412
upperneck 10.5359 -1.43736 2.87298
head 6.39877 -0.605209 1.4089
rclavicle -7.21588e-014 -1.59028e-015
rhumerus -71.131 1.40152 -91.9173
rradius 105.128
rwrist -6.25695
rhand -29.6184 15.6457
rfingers 7.12502
rthumb -2.94889 -14.3136
lclavicle -7.21588e-014 -1.59028e-015
lhumerus -42.6668 -9.93885 89.2829
lradius 126.204
lwrist 17.9323
lhand -19.2493 -9.57536
lfingers 7.12502
lthumb 7.06451 20.2867
rfemur -61.2402 -13.2127 30.9521
rtibia 51.9533
rfoot -12.7381 -2.44158
rtoes -43.5567
lfemur 4.73722 -3.52767 -22.8681
ltibia 36.127
lfoot -5.02018 -2.36738
ltoes -36.0813
95
root -5.83994 16.3254 -6.67432 -183.424 37.3722 -202.813
lowerback 13.7208 -2.51794 -11.9978
upperback -0.611313 -5.29713 -3.21534
thorax -7.61017 -2.03148 4.27483
lowerneck -19.515 -1.31649 -3.81007
upperneck 10.8376 -1.16264 2.63693
head 6.50791 -0.488263 1.34001
rclavicle -3.12092e-014 -3.97569e-016
rhumerus -71.5583 0.728067 -91.5367
rradius 104.917
rwrist -5.58038
rhand -29.462 15.4712
rfingers 7.12502
rthumb -2.79793 -14.4902
lclavicle -3.12092e-014 -3.97569e-016
lhumerus -43.0519 -9.78577 89.0504
lradius 126.124
lwrist 17.0833
lhand -19.6497 -9.7032
lfingers 7.12502
lthumb 6.67796 20.1715
rfemur -60.2767 -13.1425 30.611
rtibia 47.8578
rfoot -10.7856 -1.04745
rtoes -43.4342
lfemur 6.06152 -3.7794 -23.6885
ltibia 35.5947
lfoot 0.324982 -3.83398
ltoes -32.0818
96
root -5.5793 16.3803 -7.13662 -183.98 37.6619 -203.393
lowerback 13.4136 -2.72099 -11.9608
upperback -0.599208 -5.51449 -3.34639
thorax -7.40462 -2.15182 4.12855
lowerneck -19.7185 -1.12919 -3.67502
upperneck 11.1774 -0.901438 2.36229
head 6.64047 -0.382058 1.25895
rclavicle -1.27222e-014 3.1408e-014
rhumerus -71.8608 0.135531 -91.1875
rradius 104.678
rwrist -4.9492
rhand -29.2918 15.2603
rfingers 7.12502
rthumb -2.63347 -14.7032
lclavicle -1.27222e-014 3.1408e-014
lhumerus -43.4872 -9.62543 88.9314
lradius 125.821
lwrist 16.2924
lhand -20.0153 -9.79292
lfingers 7.12502
lthumb 6.32505 20.0926
rfemur -59.2867 -13.1777 30.2119
rtibia 44.1525
rfoot -8.77411 -0.0263182
rtoes -42.8968
lfemur 7.05955 -4.23438 -24.5177
ltibia 35.4644
lfoot 5.25813 -5.27629
ltoes -26.7665
97
root -5.31928 16.4227 -7.59918 -184.484 37.8515 -203.945
lowerback 13.077 -2.92578 -11.9018
upperback -0.590802 -5.72664 -3.45058
thorax -7.18785 -2.27164 3.99472
lowerneck -19.9534 -0.966598 -3.56662
upperneck 11.5185 -0.658309 2.05754
head 6.78074 -0.289086 1.17067
rclavicle 4.81059e-014 3.97569e-014
rhumerus -72.0586 -0.358462 -90.8507
rradius 104.443
rwrist -4.4505
rhand -29.1222 15.0489
rfingers 7.12502
rthumb -2.46968 -14.9165
lclavicle 4.81059e-014 3.97569e-014
lhumerus -43.9452 -9.46032 88.9394
lradius 125.306
lwrist 15.6061
lhand -20.3149 -9.8523
lfingers 7.12502
lthumb 6.03577 20.0417
rfemur -58.3322 -13.2841 29.7844
rtibia 40.9853
rfoot -6.91075 0.541109
rtoes -42.081
lfemur 7.71307 -4.82008 -25.336
ltibia 35.8648
lfoot 9.29045 -6.59677
ltoes -20.8076
